<?xml version="1.0" encoding="UTF-8"?>
<!-- Uploaded to: SVG Repo, www.svgrepo.com, Generator: SVG Repo Mixer Tools -->
<svg fill="#000000" width="800px" height="800px" version="1.1" viewBox="144 144 512 512" xmlns="http://www.w3.org/2000/svg">
 <g>
  <path d="m212.97 601.92 11.949-10.234-34.316-40.02c-7.1133-8.3203-11.02-18.91-11.02-29.859v-210.06c0.058594-13.727 4.5742-27.066 12.871-38.004 8.293-10.938 19.914-18.887 33.117-22.652l53.355-17.688c14.625-4.8359 27.355-14.164 36.371-26.652 9.0195-12.492 13.867-27.508 13.852-42.914h-15.742c0.011719 12.098-3.793 23.891-10.875 33.699s-17.078 17.133-28.562 20.926l-53.043 17.586c-16.422 4.75-30.859 14.695-41.148 28.344-10.293 13.645-15.887 30.262-15.941 47.355v210.06c-0.003907 14.727 5.2578 28.969 14.84 40.148z"/>
  <path d="m502.41 218.46c-11.488-3.793-21.484-11.117-28.566-20.926-7.0781-9.8086-10.887-21.602-10.871-33.699h-15.746c-0.011719 15.406 4.8359 30.426 13.855 42.914 9.0195 12.492 21.75 21.816 36.375 26.652l53.68 17.816c13.129 3.8008 24.676 11.75 32.906 22.664 8.2305 10.91 12.703 24.195 12.754 37.863v196.01c-0.027343 23.461 4.7383 46.676 14.004 68.227l10.234 23.914 14.469-6.2031-10.234-23.914c-8.4219-19.59-12.754-40.695-12.73-62.023v-196.01c-0.039063-17.039-5.5938-33.605-15.828-47.227-10.234-13.621-24.602-23.562-40.953-28.348z"/>
  <path d="m234.69 636.16h15.742c-0.011719-19.879 3.5625-39.598 10.559-58.207l29.914-79.758h-0.003906c4.6484-12.477 5.0273-26.145 1.082-38.859l-34.031-108.93c-1.1562-3.7227-4.8633-6.0391-8.7148-5.4492-3.8516 0.59375-6.6914 3.9141-6.6758 7.8086v143.04c-0.046875 15.645 5.9023 30.715 16.625 42.109l-12.941 34.477c-7.6602 20.387-11.574 41.988-11.555 63.766zm23.617-140.35-0.003907-91.457 18.648 59.688c2.9141 9.3633 2.6367 19.43-0.78516 28.621l-10.523 28.055c-4.8125-7.4141-7.3594-16.066-7.3398-24.906z"/>
  <path d="m526.97 344.96c-3.9219-0.5-7.6133 1.9648-8.6562 5.7773l-23.5 88.23c-5.5898 20.926-5.3164 42.984 0.78906 63.762l23.617 80.199-0.003906 0.003907c4.4688 15.18 6.7344 30.926 6.7305 46.75v6.4805h15.742v-6.4805h0.003906c0.003907-17.34-2.4805-34.59-7.375-51.223l-23.617-80.191c-5.3008-18.004-5.543-37.117-0.69922-55.246l8.0742-30.184v73.754c0 31.383 8.5273 62.172 24.672 89.082l13.508-8.0781c-14.68-24.469-22.434-52.469-22.434-81.004v-133.82c0-3.9531-2.9297-7.293-6.8516-7.8086z"/>
  <path d="m392.12 266.83-15.742-1.3086-3.3633 40.344c-3.0586 36.676-0.32031 73.602 8.1094 109.42 12.18 51.988 11.805 106.12-1.0938 157.94l-3.4414 13.777 15.273 3.8242 3.4492-13.777c13.5-54.25 13.891-110.93 1.1484-165.37-8.0664-34.215-10.68-69.492-7.7539-104.52z"/>
  <path d="m370.5 510.58c0.29297-5.3594 0.45703-10.723 0.48828-16.09l-15.742-0.11719c-0.042969 5.1328-0.19531 10.258-0.46484 15.375z"/>
  <path d="m354.04 463.64c0.44141 5.1133 0.75781 10.227 0.95312 15.352l15.742-0.61328c-0.20312-5.3594-0.53516-10.715-0.99219-16.074z"/>
  <path d="m345.91 570.55 15.305 3.6914c1.2578-5.2227 2.3984-10.469 3.418-15.742l-15.461-2.9922c-0.96875 5.0312-2.0547 10.047-3.2617 15.043z"/>
  <path d="m351.73 540.36 15.586 2.2656c0.79297-5.3398 1.4531-10.668 1.9766-15.977l-15.664-1.5742c-0.52344 5.1094-1.1562 10.207-1.8984 15.285z"/>
  <path d="m414.27 570.55 15.312 3.6758c1.25-5.2227 2.3867-10.469 3.418-15.742l-15.461-2.9922c-0.97656 5.0469-2.0664 10.066-3.2695 15.059z"/>
  <path d="m439.36 494.46-15.742-0.11719c-0.042969 5.1328-0.19531 10.262-0.46484 15.383l15.742 0.78906c0.26562-5.3164 0.42188-10.668 0.46484-16.055z"/>
  <path d="m437.64 526.64-15.664-1.5742c-0.52344 5.1016-1.1484 10.191-1.875 15.273l15.586 2.2656c0.77344-5.3281 1.4258-10.648 1.9531-15.965z"/>
  <path d="m439.09 478.38c-0.21484-5.3594-0.54688-10.715-0.99219-16.074l-15.688 1.3398c0.4375 5.1133 0.75391 10.227 0.95312 15.352z"/>
  <path d="m455.74 407.87c-0.0625 0-6.3516-1.1328-18.688-13.469-10.984-10.934-13.441-39.457-13.441-49.508h-15.742c0 4.3594 0.50391 43.129 18.051 60.668 16.742 16.746 26.566 18.051 29.18 18.051z"/>
  <path d="m323.59 394.43c-4.9219 5.7891-11.094 10.387-18.051 13.438v15.742c2.6133 0 12.438-1.3086 29.18-18.051 17.547-17.539 18.051-56.309 18.051-60.668h-15.742c0 10.051-2.457 38.574-13.438 49.539z"/>
 </g>
</svg>