<?xml version="1.0" encoding="UTF-8"?>
<!DOCTYPE svg PUBLIC "-//W3C//DTD SVG 1.1//EN" "http://www.w3.org/Graphics/SVG/1.1/DTD/svg11.dtd">
<svg xmlns="http://www.w3.org/2000/svg" version="1.1" width="618px" height="414px" style="shape-rendering:geometricPrecision; text-rendering:geometricPrecision; image-rendering:optimizeQuality; fill-rule:evenodd; clip-rule:evenodd" xmlns:xlink="http://www.w3.org/1999/xlink">
<g><path style="opacity:1" fill="#e8e8e9" d="M -0.5,-0.5 C 205.5,-0.5 411.5,-0.5 617.5,-0.5C 617.5,137.5 617.5,275.5 617.5,413.5C 411.5,413.5 205.5,413.5 -0.5,413.5C -0.5,275.5 -0.5,137.5 -0.5,-0.5 Z"/></g>
<g><path style="opacity:1" fill="#e1e1e3" d="M 410.5,275.5 C 410.5,230.5 410.5,185.5 410.5,140.5C 345.842,138.503 280.842,137.837 215.5,138.5C 281.436,137.973 347.436,137.14 413.5,136C 413,136.5 412.5,137 412,137.5C 411.833,183.668 411.333,229.668 410.5,275.5 Z"/></g>
<g><path style="opacity:1" fill="#d5d5d7" d="M 211.5,139.5 C 212.568,138.566 213.901,138.232 215.5,138.5C 280.842,137.837 345.842,138.503 410.5,140.5C 410.167,140.5 409.833,140.5 409.5,140.5C 343.669,139.501 277.669,139.168 211.5,139.5 Z"/></g>
<g><path style="opacity:1" fill="#c2c2c4" d="M 211.5,139.5 C 277.669,139.168 343.669,139.501 409.5,140.5C 343.665,140.168 277.998,140.501 212.5,141.5C 212.5,185.833 212.5,230.167 212.5,274.5C 211.501,229.67 211.168,184.67 211.5,139.5 Z"/></g>
<g><path style="opacity:1" fill="#bdbdbf" d="M 212.5,141.5 C 277.998,140.501 343.665,140.168 409.5,140.5C 409.5,185.167 409.5,229.833 409.5,274.5C 406.167,274.5 402.833,274.5 399.5,274.5C 397.703,273.361 396.037,272.694 394.5,272.5C 395.304,270.271 396.637,269.938 398.5,271.5C 399.737,271.444 400.737,270.944 401.5,270C 399.942,269.79 398.609,269.29 397.5,268.5C 399.5,268.5 401.5,268.5 403.5,268.5C 403.5,227.5 403.5,186.5 403.5,145.5C 402.5,145.5 401.5,145.5 400.5,145.5C 400.611,144.883 400.944,144.383 401.5,144C 391,143.5 380.5,143 370,142.5C 322.475,143.053 274.975,143.053 227.5,142.5C 224.562,142.568 221.895,143.234 219.5,144.5C 218.508,144.328 217.842,144.662 217.5,145.5C 215.833,144.167 214.167,142.833 212.5,141.5 Z"/></g>
<g><path style="opacity:1" fill="#b8b8ba" d="M 400.5,145.5 C 400.167,145.5 399.833,145.5 399.5,145.5C 339.669,144.501 279.669,144.168 219.5,144.5C 221.895,143.234 224.562,142.568 227.5,142.5C 274.975,143.053 322.475,143.053 370,142.5C 380.5,143 391,143.5 401.5,144C 400.944,144.383 400.611,144.883 400.5,145.5 Z"/></g>
<g><path style="opacity:1" fill="#e8e7ec" d="M 210.5,143.5 C 210.5,147.5 210.5,151.5 210.5,155.5C 209.603,154.402 208.77,154.402 208,155.5C 207.833,154.833 207.667,154.167 207.5,153.5C 207.689,149.685 208.689,146.352 210.5,143.5 Z"/></g>
<g><path style="opacity:1" fill="#c0c0c2" d="M 219.5,144.5 C 279.669,144.168 339.669,144.501 399.5,145.5C 338.998,145.168 278.664,145.501 218.5,146.5C 218.167,146.5 217.833,146.5 217.5,146.5C 217.5,146.167 217.5,145.833 217.5,145.5C 217.842,144.662 218.508,144.328 219.5,144.5 Z"/></g>
<g><path style="opacity:1" fill="#e8e8e9" d="M 219.5,146.5 C 280.5,146.5 341.5,146.5 402.5,146.5C 402.5,186.833 402.5,227.167 402.5,267.5C 400.5,267.5 398.5,267.5 396.5,267.5C 396.297,265.956 395.63,264.622 394.5,263.5C 392.352,261.485 390.019,259.818 387.5,258.5C 387.5,257.833 387.5,257.167 387.5,256.5C 388.091,255.849 388.757,255.182 389.5,254.5C 388.349,253.269 387.183,253.269 386,254.5C 385.04,252.621 384.54,250.621 384.5,248.5C 383.749,249.376 383.249,250.376 383,251.5C 382.184,250.177 381.017,249.511 379.5,249.5C 378.5,248.833 377.5,248.167 376.5,247.5C 375.833,247.5 375.5,247.167 375.5,246.5C 374.167,244.5 372.5,242.833 370.5,241.5C 370.167,240.5 369.5,239.833 368.5,239.5C 367.5,238.5 366.5,237.5 365.5,236.5C 365.167,235.833 364.833,235.167 364.5,234.5C 364.586,233.504 364.252,232.671 363.5,232C 365.158,231.275 365.658,230.108 365,228.5C 363.667,226.5 362,224.833 360,223.5C 357.575,224.643 355.408,225.976 353.5,227.5C 353.5,227.833 353.5,228.167 353.5,228.5C 351.368,228.554 350.035,229.554 349.5,231.5C 348.599,232.29 347.932,233.29 347.5,234.5C 344.911,235.419 342.911,237.086 341.5,239.5C 339.088,239.694 338.088,241.027 338.5,243.5C 337.833,243.5 337.5,243.833 337.5,244.5C 335.856,244.81 334.856,245.81 334.5,247.5C 333.022,247.762 331.689,247.429 330.5,246.5C 329.812,245.145 328.812,244.145 327.5,243.5C 326.5,241.833 325.167,240.5 323.5,239.5C 322.167,238.167 320.833,236.833 319.5,235.5C 318.5,233.833 317.167,232.5 315.5,231.5C 314.167,230.167 312.833,228.833 311.5,227.5C 309.833,225.167 307.833,223.167 305.5,221.5C 304.5,221.167 303.833,220.5 303.5,219.5C 302.5,217.833 301.167,216.5 299.5,215.5C 299.167,213.167 297.833,211.833 295.5,211.5C 294.5,209.833 293.167,208.5 291.5,207.5C 291.167,205.167 289.833,203.833 287.5,203.5C 286.432,202.566 285.099,202.232 283.5,202.5C 282.094,202.973 281.427,203.973 281.5,205.5C 280.167,205.5 279.5,206.167 279.5,207.5C 278.5,207.833 277.833,208.5 277.5,209.5C 275.167,209.833 273.833,211.167 273.5,213.5C 272.5,213.833 271.833,214.5 271.5,215.5C 269.519,217.144 267.519,218.81 265.5,220.5C 263.508,220.672 261.842,220.005 260.5,218.5C 259.319,219.515 258.319,220.681 257.5,222C 258.233,223.766 258.567,225.599 258.5,227.5C 253.833,227.5 251.5,229.833 251.5,234.5C 251.5,234.833 251.5,235.167 251.5,235.5C 250.508,235.328 249.842,235.662 249.5,236.5C 247.027,236.799 244.86,237.799 243,239.5C 241.765,238.385 240.598,238.385 239.5,239.5C 238.766,242.666 237.6,245.666 236,248.5C 234.644,247.62 233.144,247.286 231.5,247.5C 231.833,249.5 232.167,251.5 232.5,253.5C 232.167,254.167 231.833,254.833 231.5,255.5C 229.215,257.118 227.215,259.118 225.5,261.5C 224.167,261.5 223.5,262.167 223.5,263.5C 222.508,263.328 221.842,263.662 221.5,264.5C 220.307,264.03 219.64,263.03 219.5,261.5C 219.878,259.865 220.544,258.365 221.5,257C 220.317,254.154 219.651,251.154 219.5,248C 220.143,214.392 220.143,180.558 219.5,146.5 Z"/></g>
<g><path style="opacity:1" fill="#c8c9cb" d="M 409.5,140.5 C 409.833,140.5 410.167,140.5 410.5,140.5C 410.5,185.5 410.5,230.5 410.5,275.5C 344.5,275.5 278.5,275.5 212.5,275.5C 212.5,275.167 212.5,274.833 212.5,274.5C 213.167,274.5 213.833,274.5 214.5,274.5C 276.167,274.5 337.833,274.5 399.5,274.5C 402.833,274.5 406.167,274.5 409.5,274.5C 409.5,229.833 409.5,185.167 409.5,140.5 Z"/></g>
<g><path style="opacity:1" fill="#b8b8bc" d="M 212.5,141.5 C 214.167,142.833 215.833,144.167 217.5,145.5C 217.5,145.833 217.5,146.167 217.5,146.5C 217.5,147.833 217.5,149.167 217.5,150.5C 215.43,150.583 215.097,151.583 216.5,153.5C 215.19,173.411 214.523,193.411 214.5,213.5C 214.854,234.011 214.854,254.344 214.5,274.5C 213.833,274.5 213.167,274.5 212.5,274.5C 212.5,230.167 212.5,185.833 212.5,141.5 Z"/></g>
<g><path style="opacity:1" fill="#d9d9db" d="M 211.5,139.5 C 211.168,184.67 211.501,229.67 212.5,274.5C 212.5,274.833 212.5,275.167 212.5,275.5C 210.952,275.179 210.285,274.179 210.5,272.5C 210.5,233.5 210.5,194.5 210.5,155.5C 210.5,151.5 210.5,147.5 210.5,143.5C 210.232,141.901 210.566,140.568 211.5,139.5 Z"/></g>
<g><path style="opacity:1" fill="#d9d9db" d="M 341.5,169.5 C 339.544,170.492 337.544,171.492 335.5,172.5C 336.687,170.025 338.687,169.025 341.5,169.5 Z"/></g>
<g><path style="opacity:1" fill="#bdbdbf" d="M 341.5,169.5 C 344.939,169.253 348.272,169.586 351.5,170.5C 352.306,171.728 353.306,172.728 354.5,173.5C 352.278,173.178 350.444,173.845 349,175.5C 348.503,178.146 348.336,180.813 348.5,183.5C 352.167,183.5 355.833,183.5 359.5,183.5C 359.216,185.415 359.549,187.081 360.5,188.5C 359.89,189.391 359.557,190.391 359.5,191.5C 359.5,192.167 359.5,192.833 359.5,193.5C 357.167,195.167 355.167,197.167 353.5,199.5C 352.508,199.328 351.842,199.662 351.5,200.5C 350.5,200.5 349.5,200.5 348.5,200.5C 347.029,194.942 346.029,189.276 345.5,183.5C 343.143,183.337 340.81,183.503 338.5,184C 337.257,186.034 335.757,186.867 334,186.5C 333,184.5 332,182.5 331,180.5C 330.502,183.482 330.335,186.482 330.5,189.5C 328.977,185.388 329.311,181.388 331.5,177.5C 332.803,175.858 334.136,174.191 335.5,172.5C 337.544,171.492 339.544,170.492 341.5,169.5 Z"/></g>
<g><path style="opacity:1" fill="#ceced0" d="M 351.5,170.5 C 353.848,170.592 355.514,171.592 356.5,173.5C 355.833,173.5 355.167,173.5 354.5,173.5C 353.306,172.728 352.306,171.728 351.5,170.5 Z"/></g>
<g><path style="opacity:1" fill="#dadade" d="M 356.5,173.5 C 359.76,174.486 361.427,176.819 361.5,180.5C 361.167,180.5 360.833,180.5 360.5,180.5C 359.42,178.004 358.086,175.67 356.5,173.5 Z"/></g>
<g><path style="opacity:1" fill="#bcbdc1" d="M 354.5,173.5 C 355.167,173.5 355.833,173.5 356.5,173.5C 358.086,175.67 359.42,178.004 360.5,180.5C 360.5,183.167 360.5,185.833 360.5,188.5C 359.549,187.081 359.216,185.415 359.5,183.5C 355.833,183.5 352.167,183.5 348.5,183.5C 348.336,180.813 348.503,178.146 349,175.5C 350.444,173.845 352.278,173.178 354.5,173.5 Z"/></g>
<g><path style="opacity:1" fill="#e6e6e8" d="M 399.5,175.5 C 400.833,189.818 401.499,204.484 401.5,219.5C 401.333,234.167 401.167,248.833 401,263.5C 399.567,234.196 399.067,204.863 399.5,175.5 Z"/></g>
<g><path style="opacity:1" fill="#dbdbdd" d="M 218.5,146.5 C 278.664,145.501 338.998,145.168 399.5,145.5C 399.833,145.5 400.167,145.5 400.5,145.5C 401.5,145.5 402.5,145.5 403.5,145.5C 403.5,186.5 403.5,227.5 403.5,268.5C 401.5,268.5 399.5,268.5 397.5,268.5C 396.833,268.5 396.5,268.167 396.5,267.5C 398.5,267.5 400.5,267.5 402.5,267.5C 402.5,227.167 402.5,186.833 402.5,146.5C 341.5,146.5 280.5,146.5 219.5,146.5C 219.167,146.5 218.833,146.5 218.5,146.5 Z"/></g>
<g><path style="opacity:1" fill="#c6c6ca" d="M 360.5,180.5 C 360.833,180.5 361.167,180.5 361.5,180.5C 362.08,184.649 361.414,188.316 359.5,191.5C 359.557,190.391 359.89,189.391 360.5,188.5C 360.5,185.833 360.5,183.167 360.5,180.5 Z"/></g>
<g><path style="opacity:1" fill="#d0cfd2" d="M 217.5,146.5 C 217.833,146.5 218.167,146.5 218.5,146.5C 217.839,186.847 218.506,226.847 220.5,266.5C 219.791,267.404 218.791,267.737 217.5,267.5C 217.5,228.5 217.5,189.5 217.5,150.5C 217.5,149.167 217.5,147.833 217.5,146.5 Z"/></g>
<g><path style="opacity:1" fill="#e4e4e7" d="M 218.5,146.5 C 218.833,146.5 219.167,146.5 219.5,146.5C 220.143,180.558 220.143,214.392 219.5,248C 219.651,251.154 220.317,254.154 221.5,257C 220.544,258.365 219.878,259.865 219.5,261.5C 219.64,263.03 220.307,264.03 221.5,264.5C 221.167,265.167 220.833,265.833 220.5,266.5C 218.506,226.847 217.839,186.847 218.5,146.5 Z"/></g>
<g><path style="opacity:1" fill="#bcbbc0" d="M 348.5,200.5 C 345.098,200.658 341.764,200.324 338.5,199.5C 338.167,199.5 337.833,199.5 337.5,199.5C 336.674,197.736 335.341,196.402 333.5,195.5C 333.167,195.5 332.833,195.5 332.5,195.5C 331.833,193.5 331.167,191.5 330.5,189.5C 330.335,186.482 330.502,183.482 331,180.5C 332,182.5 333,184.5 334,186.5C 335.757,186.867 337.257,186.034 338.5,184C 340.81,183.503 343.143,183.337 345.5,183.5C 346.029,189.276 347.029,194.942 348.5,200.5 Z"/></g>
<g><path style="opacity:1" fill="#e5e4e8" d="M 331.5,177.5 C 329.311,181.388 328.977,185.388 330.5,189.5C 331.167,191.5 331.833,193.5 332.5,195.5C 329.074,195.35 328.741,196.516 331.5,199C 330.552,199.483 329.552,199.649 328.5,199.5C 327.917,192.543 328.083,185.543 329,178.5C 329.671,177.748 330.504,177.414 331.5,177.5 Z"/></g>
<g><path style="opacity:1" fill="#d1d1d0" d="M 359.5,193.5 C 358.5,196.5 356.5,198.5 353.5,199.5C 355.167,197.167 357.167,195.167 359.5,193.5 Z"/></g>
<g><path style="opacity:1" fill="#d4d4d6" d="M 333.5,195.5 C 335.341,196.402 336.674,197.736 337.5,199.5C 334.821,199.475 333.488,198.142 333.5,195.5 Z"/></g>
<g><path style="opacity:1" fill="#ceced0" d="M 338.5,199.5 C 341.764,200.324 345.098,200.658 348.5,200.5C 349.5,200.5 350.5,200.5 351.5,200.5C 347.689,201.645 343.689,201.812 339.5,201C 338.944,200.617 338.611,200.117 338.5,199.5 Z"/></g>
<g><path style="opacity:1" fill="#d5d5d7" d="M 283.5,202.5 C 283.443,203.609 283.11,204.609 282.5,205.5C 282.167,205.5 281.833,205.5 281.5,205.5C 281.427,203.973 282.094,202.973 283.5,202.5 Z"/></g>
<g><path style="opacity:1" fill="#d7d7d9" d="M 287.5,203.5 C 289.833,203.833 291.167,205.167 291.5,207.5C 289.833,206.5 288.5,205.167 287.5,203.5 Z"/></g>
<g><path style="opacity:1" fill="#bdbdbf" d="M 283.5,202.5 C 285.099,202.232 286.432,202.566 287.5,203.5C 288.5,205.167 289.833,206.5 291.5,207.5C 293.167,208.5 294.5,209.833 295.5,211.5C 295.5,211.833 295.5,212.167 295.5,212.5C 294.175,213.953 293.342,213.619 293,211.5C 292.667,212.167 292.333,212.833 292,213.5C 290.992,213.018 289.825,212.852 288.5,213C 287.594,211.301 287.261,209.467 287.5,207.5C 285.678,207.169 284.011,206.502 282.5,205.5C 283.11,204.609 283.443,203.609 283.5,202.5 Z"/></g>
<g><path style="opacity:1" fill="#d2d2d4" d="M 281.5,205.5 C 281.167,206.5 280.5,207.167 279.5,207.5C 279.5,206.167 280.167,205.5 281.5,205.5 Z"/></g>
<g><path style="opacity:1" fill="#bcbdc0" d="M 217.5,150.5 C 217.5,189.5 217.5,228.5 217.5,267.5C 218.791,267.737 219.791,267.404 220.5,266.5C 221.167,266.5 221.833,266.5 222.5,266.5C 222.435,266.938 222.601,267.272 223,267.5C 226.043,264.491 229.043,261.491 232,258.5C 233.892,259.617 234.725,261.284 234.5,263.5C 232.712,263.215 231.045,263.548 229.5,264.5C 232.98,265.806 236.313,265.806 239.5,264.5C 242.167,264.5 244.833,264.5 247.5,264.5C 247.5,266.833 247.5,269.167 247.5,271.5C 251.5,271.5 255.5,271.5 259.5,271.5C 259.5,268.833 259.5,266.167 259.5,263.5C 256.167,263.5 252.833,263.5 249.5,263.5C 249.334,257.824 249.501,252.157 250,246.5C 251.751,245.191 253.251,245.525 254.5,247.5C 255.386,246.675 255.719,245.675 255.5,244.5C 257.124,244.64 258.29,243.973 259,242.5C 259.499,238.848 259.665,235.182 259.5,231.5C 265.917,232.837 268.25,230.504 266.5,224.5C 265.583,223.873 264.583,223.539 263.5,223.5C 263.5,222.167 264.167,221.5 265.5,221.5C 266.167,221.167 266.833,220.833 267.5,220.5C 268.148,222.586 269.648,223.586 272,223.5C 273.326,223.245 274.326,222.578 275,221.5C 278.836,223.389 283.003,224.055 287.5,223.5C 287.5,226.167 287.5,228.833 287.5,231.5C 290.5,231.5 293.5,231.5 296.5,231.5C 296.5,228.833 296.5,226.167 296.5,223.5C 297.978,223.762 299.311,223.429 300.5,222.5C 299.691,220.929 299.357,219.262 299.5,217.5C 300.605,218.6 301.938,219.267 303.5,219.5C 303.833,220.5 304.5,221.167 305.5,221.5C 306.167,224.833 308.167,226.833 311.5,227.5C 312.833,228.833 314.167,230.167 315.5,231.5C 315.833,233.833 317.167,235.167 319.5,235.5C 320.833,236.833 322.167,238.167 323.5,239.5C 323.833,241.833 325.167,243.167 327.5,243.5C 328.812,244.145 329.812,245.145 330.5,246.5C 331.689,247.429 333.022,247.762 334.5,247.5C 336.144,247.19 337.144,246.19 337.5,244.5C 337.5,243.833 337.833,243.5 338.5,243.5C 339.488,242.205 340.488,240.872 341.5,239.5C 341.833,239.5 342.167,239.5 342.5,239.5C 342.285,241.179 342.952,242.179 344.5,242.5C 342.069,244.068 342.069,245.568 344.5,247C 343.556,249.719 343.223,252.552 343.5,255.5C 348.833,255.167 354.167,254.833 359.5,254.5C 359.5,252.5 359.5,250.5 359.5,248.5C 356.833,248.5 354.167,248.5 351.5,248.5C 351.5,246.833 351.5,245.167 351.5,243.5C 356.838,244.002 362.172,244.169 367.5,244C 368.308,243.692 368.975,243.192 369.5,242.5C 368.873,241.583 368.539,240.583 368.5,239.5C 369.5,239.833 370.167,240.5 370.5,241.5C 371.167,244.167 372.833,245.833 375.5,246.5C 375.5,247.167 375.833,247.5 376.5,247.5C 377.833,250.833 380.167,253.167 383.5,254.5C 383.842,255.338 384.508,255.672 385.5,255.5C 385.427,257.027 386.094,258.027 387.5,258.5C 389.876,262.176 392.876,265.176 396.5,267.5C 396.5,268.167 396.833,268.5 397.5,268.5C 398.609,269.29 399.942,269.79 401.5,270C 400.737,270.944 399.737,271.444 398.5,271.5C 396.637,269.938 395.304,270.271 394.5,272.5C 396.037,272.694 397.703,273.361 399.5,274.5C 337.833,274.5 276.167,274.5 214.5,274.5C 214.854,254.344 214.854,234.011 214.5,213.5C 214.523,193.411 215.19,173.411 216.5,153.5C 215.097,151.583 215.43,150.583 217.5,150.5 Z"/></g>
<g><path style="opacity:1" fill="#bcbcc0" d="M 281.5,205.5 C 281.833,205.5 282.167,205.5 282.5,205.5C 284.011,206.502 285.678,207.169 287.5,207.5C 287.261,209.467 287.594,211.301 288.5,213C 289.825,212.852 290.992,213.018 292,213.5C 292.333,212.833 292.667,212.167 293,211.5C 293.342,213.619 294.175,213.953 295.5,212.5C 296.833,213.5 298.167,214.5 299.5,215.5C 299.5,216.167 299.5,216.833 299.5,217.5C 299.357,219.262 299.691,220.929 300.5,222.5C 299.311,223.429 297.978,223.762 296.5,223.5C 296.5,226.167 296.5,228.833 296.5,231.5C 293.5,231.5 290.5,231.5 287.5,231.5C 287.5,228.833 287.5,226.167 287.5,223.5C 283.003,224.055 278.836,223.389 275,221.5C 274.326,222.578 273.326,223.245 272,223.5C 269.648,223.586 268.148,222.586 267.5,220.5C 269.543,219.421 270.876,217.754 271.5,215.5C 271.833,214.5 272.5,213.833 273.5,213.5C 275.167,212.5 276.5,211.167 277.5,209.5C 277.833,208.5 278.5,207.833 279.5,207.5C 280.5,207.167 281.167,206.5 281.5,205.5 Z"/></g>
<g><path style="opacity:1" fill="#cfcfd1" d="M 277.5,209.5 C 276.5,211.167 275.167,212.5 273.5,213.5C 273.833,211.167 275.167,209.833 277.5,209.5 Z"/></g>
<g><path style="opacity:1" fill="#d7d7d9" d="M 295.5,212.5 C 295.5,212.167 295.5,211.833 295.5,211.5C 297.833,211.833 299.167,213.167 299.5,215.5C 298.167,214.5 296.833,213.5 295.5,212.5 Z"/></g>
<g><path style="opacity:1" fill="#c9c9cb" d="M 299.5,215.5 C 301.167,216.5 302.5,217.833 303.5,219.5C 301.938,219.267 300.605,218.6 299.5,217.5C 299.5,216.833 299.5,216.167 299.5,215.5 Z"/></g>
<g><path style="opacity:1" fill="#cacacc" d="M 271.5,215.5 C 270.876,217.754 269.543,219.421 267.5,220.5C 266.833,220.833 266.167,221.167 265.5,221.5C 265.5,221.167 265.5,220.833 265.5,220.5C 267.519,218.81 269.519,217.144 271.5,215.5 Z"/></g>
<g><path style="opacity:1" fill="#e4e4e7" d="M 265.5,220.5 C 265.5,220.833 265.5,221.167 265.5,221.5C 264.167,221.5 263.5,222.167 263.5,223.5C 262.5,223.833 261.833,224.5 261.5,225.5C 260.222,225.782 259.222,226.449 258.5,227.5C 258.567,225.599 258.233,223.766 257.5,222C 258.319,220.681 259.319,219.515 260.5,218.5C 261.842,220.005 263.508,220.672 265.5,220.5 Z"/></g>
<g><path style="opacity:1" fill="#e4e4e4" d="M 364.5,234.5 C 363.167,233.833 362.167,232.833 361.5,231.5C 360.738,229.738 359.404,228.738 357.5,228.5C 356.597,226.38 355.263,226.046 353.5,227.5C 355.408,225.976 357.575,224.643 360,223.5C 362,224.833 363.667,226.5 365,228.5C 365.658,230.108 365.158,231.275 363.5,232C 364.252,232.671 364.586,233.504 364.5,234.5 Z"/></g>
<g><path style="opacity:1" fill="#c8c9cb" d="M 305.5,221.5 C 307.833,223.167 309.833,225.167 311.5,227.5C 308.167,226.833 306.167,224.833 305.5,221.5 Z"/></g>
<g><path style="opacity:1" fill="#c5c5c5" d="M 357.5,228.5 C 357.5,228.833 357.5,229.167 357.5,229.5C 356.167,228.167 354.833,228.167 353.5,229.5C 353.5,229.167 353.5,228.833 353.5,228.5C 353.5,228.167 353.5,227.833 353.5,227.5C 355.263,226.046 356.597,226.38 357.5,228.5 Z"/></g>
<g><path style="opacity:1" fill="#bababa" d="M 357.5,229.5 C 358.5,229.833 359.167,230.5 359.5,231.5C 358.4,232.605 357.733,233.938 357.5,235.5C 356.167,235.5 354.833,235.5 353.5,235.5C 353.64,233.876 352.973,232.71 351.5,232C 352.056,231.617 352.389,231.117 352.5,230.5C 352.5,229.833 352.833,229.5 353.5,229.5C 354.833,228.167 356.167,228.167 357.5,229.5 Z"/></g>
<g><path style="opacity:1" fill="#d8d8d8" d="M 353.5,228.5 C 353.5,228.833 353.5,229.167 353.5,229.5C 352.833,229.5 352.5,229.833 352.5,230.5C 351.391,230.557 350.391,230.89 349.5,231.5C 350.035,229.554 351.368,228.554 353.5,228.5 Z"/></g>
<g><path style="opacity:1" fill="#d7d7d7" d="M 357.5,229.5 C 357.5,229.167 357.5,228.833 357.5,228.5C 359.404,228.738 360.738,229.738 361.5,231.5C 360.833,231.5 360.167,231.5 359.5,231.5C 359.167,230.5 358.5,229.833 357.5,229.5 Z"/></g>
<g><path style="opacity:1" fill="#e2e1e5" d="M 258.5,227.5 C 256.771,228.236 255.771,229.57 255.5,231.5C 253.97,232.211 252.637,233.211 251.5,234.5C 251.5,229.833 253.833,227.5 258.5,227.5 Z"/></g>
<g><path style="opacity:1" fill="#cdccd0" d="M 261.5,225.5 C 260.404,228.386 258.404,230.386 255.5,231.5C 255.771,229.57 256.771,228.236 258.5,227.5C 259.222,226.449 260.222,225.782 261.5,225.5 Z"/></g>
<g><path style="opacity:1" fill="#bbbbc0" d="M 263.5,223.5 C 264.583,223.539 265.583,223.873 266.5,224.5C 268.25,230.504 265.917,232.837 259.5,231.5C 259.665,235.182 259.499,238.848 259,242.5C 258.29,243.973 257.124,244.64 255.5,244.5C 255.719,245.675 255.386,246.675 254.5,247.5C 253.251,245.525 251.751,245.191 250,246.5C 249.501,252.157 249.334,257.824 249.5,263.5C 252.833,263.5 256.167,263.5 259.5,263.5C 259.5,266.167 259.5,268.833 259.5,271.5C 255.5,271.5 251.5,271.5 247.5,271.5C 247.5,269.167 247.5,266.833 247.5,264.5C 244.833,264.5 242.167,264.5 239.5,264.5C 239.5,264.167 239.5,263.833 239.5,263.5C 242.167,263.5 244.833,263.5 247.5,263.5C 247.905,259.952 247.405,256.619 246,253.5C 244.211,255.229 242.044,255.896 239.5,255.5C 239.425,258.206 239.092,260.873 238.5,263.5C 237.082,260.584 235.748,257.584 234.5,254.5C 235.075,252.589 236.075,250.922 237.5,249.5C 238.833,246.833 240.833,244.833 243.5,243.5C 245.71,243.106 247.043,241.773 247.5,239.5C 248.5,239.167 249.167,238.5 249.5,237.5C 250.5,237.167 251.167,236.5 251.5,235.5C 253.71,235.106 255.043,233.773 255.5,231.5C 258.404,230.386 260.404,228.386 261.5,225.5C 261.833,224.5 262.5,223.833 263.5,223.5 Z"/></g>
<g><path style="opacity:1" fill="#c0c0c0" d="M 359.5,231.5 C 360.167,231.5 360.833,231.5 361.5,231.5C 362.167,232.833 363.167,233.833 364.5,234.5C 364.833,235.167 365.167,235.833 365.5,236.5C 362.904,235.735 360.237,235.401 357.5,235.5C 357.733,233.938 358.4,232.605 359.5,231.5 Z"/></g>
<g><path style="opacity:1" fill="#cacbcd" d="M 315.5,231.5 C 317.167,232.5 318.5,233.833 319.5,235.5C 317.167,235.167 315.833,233.833 315.5,231.5 Z"/></g>
<g><path style="opacity:1" fill="#c9c8cd" d="M 255.5,231.5 C 255.043,233.773 253.71,235.106 251.5,235.5C 251.5,235.167 251.5,234.833 251.5,234.5C 252.637,233.211 253.97,232.211 255.5,231.5 Z"/></g>
<g><path style="opacity:1" fill="#d0d0d2" d="M 251.5,235.5 C 251.167,236.5 250.5,237.167 249.5,237.5C 249.5,237.167 249.5,236.833 249.5,236.5C 249.842,235.662 250.508,235.328 251.5,235.5 Z"/></g>
<g><path style="opacity:1" fill="#d2d2d3" d="M 347.5,234.5 C 346.167,236.167 344.833,237.833 343.5,239.5C 343.167,239.5 342.833,239.5 342.5,239.5C 342.167,239.5 341.833,239.5 341.5,239.5C 342.911,237.086 344.911,235.419 347.5,234.5 Z"/></g>
<g><path style="opacity:1" fill="#bebebf" d="M 352.5,230.5 C 352.389,231.117 352.056,231.617 351.5,232C 352.973,232.71 353.64,233.876 353.5,235.5C 351.866,236.207 350.532,237.373 349.5,239C 347.527,239.495 345.527,239.662 343.5,239.5C 344.833,237.833 346.167,236.167 347.5,234.5C 347.932,233.29 348.599,232.29 349.5,231.5C 350.391,230.89 351.391,230.557 352.5,230.5 Z"/></g>
<g><path style="opacity:1" fill="#bababd" d="M 353.5,235.5 C 354.833,235.5 356.167,235.5 357.5,235.5C 360.237,235.401 362.904,235.735 365.5,236.5C 366.5,237.5 367.5,238.5 368.5,239.5C 368.539,240.583 368.873,241.583 369.5,242.5C 368.975,243.192 368.308,243.692 367.5,244C 362.172,244.169 356.838,244.002 351.5,243.5C 351.565,243.062 351.399,242.728 351,242.5C 348.921,244.952 346.754,244.952 344.5,242.5C 342.952,242.179 342.285,241.179 342.5,239.5C 342.833,239.5 343.167,239.5 343.5,239.5C 345.527,239.662 347.527,239.495 349.5,239C 350.532,237.373 351.866,236.207 353.5,235.5 Z"/></g>
<g><path style="opacity:1" fill="#d0d0d2" d="M 249.5,237.5 C 249.167,238.5 248.5,239.167 247.5,239.5C 247.5,238.167 248.167,237.5 249.5,237.5 Z"/></g>
<g><path style="opacity:1" fill="#e5e4e8" d="M 249.5,236.5 C 249.5,236.833 249.5,237.167 249.5,237.5C 248.167,237.5 247.5,238.167 247.5,239.5C 245.736,240.326 244.402,241.659 243.5,243.5C 240.833,244.833 238.833,246.833 237.5,249.5C 235.225,250.111 233.559,251.445 232.5,253.5C 232.167,251.5 231.833,249.5 231.5,247.5C 233.144,247.286 234.644,247.62 236,248.5C 237.6,245.666 238.766,242.666 239.5,239.5C 240.598,238.385 241.765,238.385 243,239.5C 244.86,237.799 247.027,236.799 249.5,236.5 Z"/></g>
<g><path style="opacity:1" fill="#cacacc" d="M 323.5,239.5 C 325.167,240.5 326.5,241.833 327.5,243.5C 325.167,243.167 323.833,241.833 323.5,239.5 Z"/></g>
<g><path style="opacity:1" fill="#cbcacf" d="M 247.5,239.5 C 247.043,241.773 245.71,243.106 243.5,243.5C 244.402,241.659 245.736,240.326 247.5,239.5 Z"/></g>
<g><path style="opacity:1" fill="#d9d9db" d="M 341.5,239.5 C 340.488,240.872 339.488,242.205 338.5,243.5C 338.088,241.027 339.088,239.694 341.5,239.5 Z"/></g>
<g><path style="opacity:1" fill="#cacacc" d="M 370.5,241.5 C 372.5,242.833 374.167,244.5 375.5,246.5C 372.833,245.833 371.167,244.167 370.5,241.5 Z"/></g>
<g><path style="opacity:1" fill="#bcbcc2" d="M 344.5,242.5 C 346.754,244.952 348.921,244.952 351,242.5C 351.399,242.728 351.565,243.062 351.5,243.5C 351.5,245.167 351.5,246.833 351.5,248.5C 354.167,248.5 356.833,248.5 359.5,248.5C 359.5,250.5 359.5,252.5 359.5,254.5C 354.167,254.833 348.833,255.167 343.5,255.5C 343.223,252.552 343.556,249.719 344.5,247C 342.069,245.568 342.069,244.068 344.5,242.5 Z"/></g>
<g><path style="opacity:1" fill="#c8c9cb" d="M 337.5,244.5 C 337.144,246.19 336.144,247.19 334.5,247.5C 334.856,245.81 335.856,244.81 337.5,244.5 Z"/></g>
<g><path style="opacity:1" fill="#cbcbcd" d="M 376.5,247.5 C 377.5,248.167 378.5,248.833 379.5,249.5C 380.833,251.167 382.167,252.833 383.5,254.5C 380.167,253.167 377.833,250.833 376.5,247.5 Z"/></g>
<g><path style="opacity:1" fill="#e4e3e7" d="M 387.5,256.5 C 386.833,256.167 386.167,255.833 385.5,255.5C 384.508,255.672 383.842,255.338 383.5,254.5C 382.167,252.833 380.833,251.167 379.5,249.5C 381.017,249.511 382.184,250.177 383,251.5C 383.249,250.376 383.749,249.376 384.5,248.5C 384.54,250.621 385.04,252.621 386,254.5C 387.183,253.269 388.349,253.269 389.5,254.5C 388.757,255.182 388.091,255.849 387.5,256.5 Z"/></g>
<g><path style="opacity:1" fill="#c9c9cb" d="M 237.5,249.5 C 236.075,250.922 235.075,252.589 234.5,254.5C 233.609,255.11 232.609,255.443 231.5,255.5C 231.833,254.833 232.167,254.167 232.5,253.5C 233.559,251.445 235.225,250.111 237.5,249.5 Z"/></g>
<g><path style="opacity:1" fill="#bbbac2" d="M 239.5,263.5 C 239.167,263.5 238.833,263.5 238.5,263.5C 239.092,260.873 239.425,258.206 239.5,255.5C 242.044,255.896 244.211,255.229 246,253.5C 247.405,256.619 247.905,259.952 247.5,263.5C 244.833,263.5 242.167,263.5 239.5,263.5 Z"/></g>
<g><path style="opacity:1" fill="#d4d4d6" d="M 385.5,255.5 C 386.167,255.833 386.833,256.167 387.5,256.5C 387.5,257.167 387.5,257.833 387.5,258.5C 386.094,258.027 385.427,257.027 385.5,255.5 Z"/></g>
<g><path style="opacity:1" fill="#c7c7c9" d="M 231.5,255.5 C 230.478,258.522 228.478,260.522 225.5,261.5C 227.215,259.118 229.215,257.118 231.5,255.5 Z"/></g>
<g><path style="opacity:1" fill="#cfcfd1" d="M 225.5,261.5 C 225.167,262.5 224.5,263.167 223.5,263.5C 223.5,262.167 224.167,261.5 225.5,261.5 Z"/></g>
<g><path style="opacity:1" fill="#d5d5d6" d="M 387.5,258.5 C 390.019,259.818 392.352,261.485 394.5,263.5C 395.63,264.622 396.297,265.956 396.5,267.5C 392.876,265.176 389.876,262.176 387.5,258.5 Z"/></g>
<g><path style="opacity:1" fill="#babbbd" d="M 234.5,254.5 C 235.748,257.584 237.082,260.584 238.5,263.5C 238.833,263.5 239.167,263.5 239.5,263.5C 239.5,263.833 239.5,264.167 239.5,264.5C 236.313,265.806 232.98,265.806 229.5,264.5C 231.045,263.548 232.712,263.215 234.5,263.5C 234.725,261.284 233.892,259.617 232,258.5C 229.043,261.491 226.043,264.491 223,267.5C 222.601,267.272 222.435,266.938 222.5,266.5C 222.557,265.391 222.89,264.391 223.5,263.5C 224.5,263.167 225.167,262.5 225.5,261.5C 228.478,260.522 230.478,258.522 231.5,255.5C 232.609,255.443 233.609,255.11 234.5,254.5 Z"/></g>
<g><path style="opacity:1" fill="#c9c9cb" d="M 223.5,263.5 C 222.89,264.391 222.557,265.391 222.5,266.5C 221.833,266.5 221.167,266.5 220.5,266.5C 220.833,265.833 221.167,265.167 221.5,264.5C 221.842,263.662 222.508,263.328 223.5,263.5 Z"/></g>
<g><path style="opacity:1" fill="#babebf" d="M 231.5,267.5 C 234.167,267.5 236.833,267.5 239.5,267.5C 239.5,269.5 239.5,271.5 239.5,273.5C 236.833,273.5 234.167,273.5 231.5,273.5C 231.5,271.5 231.5,269.5 231.5,267.5 Z"/></g>
<g><path style="opacity:1" fill="#e0e0e2" d="M 210.5,272.5 C 210.285,274.179 210.952,275.179 212.5,275.5C 278.5,275.5 344.5,275.5 410.5,275.5C 343.669,276.499 276.669,276.832 209.5,276.5C 209.232,274.901 209.566,273.568 210.5,272.5 Z"/></g>
</svg>
