<svg width="45" height="37" viewBox="0 0 45 37" fill="none" xmlns="http://www.w3.org/2000/svg">
<path d="M19.0694 29.2916C19.3495 29.2923 19.6262 29.2415 19.8793 29.1428C20.1324 29.0441 20.3554 28.9 20.5319 28.7211L29.5881 19.4711C29.8639 19.1953 30.0146 18.8493 30.0146 18.4922C30.0146 18.1351 29.8639 17.7891 29.5881 17.5132L20.2131 8.26323C19.8948 7.9484 19.4375 7.75041 18.9417 7.71282C18.4459 7.67524 17.9523 7.80113 17.5694 8.06281C17.1865 8.32449 16.9457 8.70052 16.8999 9.10818C16.8542 9.51584 17.0073 9.92173 17.3256 10.2366L25.7069 18.4999L17.6069 26.7632C17.3776 26.9895 17.2319 27.2651 17.1872 27.5573C17.1424 27.8495 17.2004 28.1462 17.3542 28.4122C17.5081 28.6781 17.7514 28.9023 18.0553 29.0582C18.3593 29.214 18.7112 29.295 19.0694 29.2916Z" fill="#231F20"/>
</svg>
