<svg width="45" height="37" viewBox="0 0 45 37" fill="none" xmlns="http://www.w3.org/2000/svg">
<path d="M25.9306 29.2916C25.6505 29.2923 25.3738 29.2415 25.1207 29.1428C24.8676 29.0441 24.6446 28.9 24.4681 28.7211L15.4119 19.4711C15.1361 19.1953 14.9854 18.8493 14.9854 18.4922C14.9854 18.1351 15.1361 17.7891 15.4119 17.5132L24.7869 8.26323C25.1052 7.9484 25.5625 7.75041 26.0583 7.71282C26.5541 7.67524 27.0477 7.80113 27.4306 8.06281C27.8135 8.32449 28.0543 8.70052 28.1001 9.10818C28.1458 9.51584 27.9927 9.92173 27.6744 10.2366L19.2931 18.4999L27.3931 26.7632C27.6224 26.9895 27.7681 27.2651 27.8128 27.5573C27.8576 27.8495 27.7996 28.1462 27.6458 28.4122C27.4919 28.6781 27.2486 28.9023 26.9447 29.0582C26.6407 29.214 26.2888 29.295 25.9306 29.2916Z" fill="#231F20"/>
</svg>
